<?xml version="1.0" encoding="utf-8"?>
<!-- Generator: Adobe Illustrator 26.5.0, SVG Export Plug-In . SVG Version: 6.00 Build 0)  -->
<svg version="1.1" id="Layer_1" xmlns="http://www.w3.org/2000/svg" xmlns:xlink="http://www.w3.org/1999/xlink" x="0px" y="0px"
	 viewBox="0 0 375 667" style="enable-background:new 0 0 375 667;" xml:space="preserve">
<style type="text/css">
	.st0{fill:#F7F5F5;}
	.st1{fill:#F9F7F7;}
	.st2{fill:none;stroke:#FDBD5C;stroke-width:1.6358;stroke-miterlimit:10;}
</style>
<path d="M49.4,339.28h16.97c-0.12,6.45-0.09,10.89,0,14.11c0.03,0.95,0.1,3.13-0.28,5.99c-0.24,1.79-0.49,3.6-1.31,5.73
	c-0.5,1.28-1.48,3.74-3.79,6.05c-3.09,3.09-6.67,4.02-8.52,4.47c-1.42,0.35-2.46,0.42-4.42,0.58c-2.09,0.16-4.54,0.34-7.57-0.21
	c-0.66-0.12-1.81-0.33-3.1-0.79c-4.44-1.56-7.12-4.73-7.94-5.73c-3.53-4.28-4.2-8.94-4.36-10.83l-0.32-27.5
	c0.12-5.9,0.13-10.73,0.11-14.14c-0.03-4.45-0.09-5.4,0.16-7.41c0.49-3.88,1.08-8.61,4.68-12.78c0.84-0.98,3.94-4.34,8.83-5.57
	c1.91-0.48,3.58-0.51,6.84-0.58c2.85-0.06,4.29-0.08,6.2,0.32c3.63,0.76,6.16,2.46,7.05,3.1c1.19,0.86,4.23,3.12,5.94,7.31
	c0.73,1.8,1,3.4,1.1,4.47l0.32,18.56l-16.46,0.16c-0.03-3.54-0.05-7.1-0.05-10.67c0-0.68,0.04-1.73,0-3.84
	c-0.02-1.24-0.06-1.79-0.37-2.42c-0.47-0.96-1.36-1.65-2.21-1.95c-1.13-0.4-2.43-0.21-3.59,0.48c-0.95,0.56-1.51,1.6-1.53,2.71
	l-0.4,30.99l0.1,8.76c-0.02,1.91-0.05,5.02-0.06,6.93c-0.02,0.45,0,1.01,0.12,1.61c0.15,0.73,0.36,1.8,1.26,2.68
	c0.23,0.23,1.45,1.36,3.1,1.16c1.75-0.22,2.76-1.74,3-2.37c0.62-1.62,0.74-3.38,0.63-3.94L49.4,339.28z"/>
<path d="M103.59,291.4c1.48,0.14,5.16,0.71,7.92,3.65c1.8,1.92,2.42,4.01,3.08,6.38c0.45,1.58,0.88,3.65,0.98,10.17
	c0.15,9.34-0.62,12.05-1.47,13.88c-0.91,1.97-2.41,4.02-3.59,4.49c-0.4,0.16,1.78-0.88-2.23,1.1c-0.45,0.22-0.64,0.3-0.56,0.37
	c0.76,0.62,3.7,1.04,5.4,3.86c1.08,1.79,1.3,3.9,1.4,4.84c0.11,1.07,0.08,1.88,0.07,2.1c-0.1,2.57-0.08,14.97,0,33.25H98.09
	l-0.04-34.02c0.06-0.46,0.12-1.46-0.42-2.45c-0.86-1.58-2.6-1.96-3.22-2.1c-1.22-0.28-2.25-0.08-2.77,0.07v38.5H74.71l-0.21-84.31
	L103.59,291.4z"/>
<path d="M103.59,291.4c1.48,0.14,5.16,0.71,7.92,3.65c1.8,1.92,2.42,4.01,3.08,6.38c0.45,1.58,0.88,3.65,0.98,10.17
	c0.15,9.34-0.62,12.05-1.47,13.88c-0.91,1.97-2.41,4.02-3.59,4.49c-0.4,0.16,1.78-0.88-2.23,1.1c-0.45,0.22-0.64,0.3-0.56,0.37
	c0.76,0.62,3.7,1.04,5.4,3.86c1.08,1.79,1.3,3.9,1.4,4.84c0.11,1.07,0.08,1.88,0.07,2.1c-0.1,2.57-0.08,14.97,0,33.25H98.09
	l-0.04-34.02c0.06-0.46,0.12-1.46-0.42-2.45c-0.86-1.58-2.6-1.96-3.22-2.1c-1.22-0.28-2.25-0.08-2.77,0.07v38.5H74.71l-0.21-84.31
	L103.59,291.4z"/>
<path class="st0" d="M91.18,306.05v15.77c0.92,0.03,1.91,0.04,2.94,0c1.81-0.06,2.05-0.08,2.24-0.14c0.42-0.14,1.66-0.71,2.35-3.71
	c0.09-0.38,0.15-1,0.15-1.39c0.03-3.13,0.03-4.87,0.03-6.33c0-0.28-0.03-0.89-0.14-1.68c-0.1-0.72-0.37-1.19-0.68-1.53
	c-0.47-0.52-1.15-0.79-1.85-0.82L91.18,306.05z"/>
<polygon points="123.92,291.16 123.92,375.47 158.41,375.47 158.41,359.54 141.17,359.33 141.17,339.14 157.15,339.35 156.94,324 
	141.17,324 141.17,306.96 157.74,307.03 157.71,291.16 "/>
<polygon points="193.48,375.47 209.41,375.47 201.42,291.16 172.92,291.16 164.72,375.47 180.91,375.47 181.97,361.54 
	192.31,361.75 "/>
<polygon class="st1" points="183.37,348.32 191.08,348.32 187.07,305.08 187.06,305.08 "/>
<path class="st2" d="M245.49,290.87c1.48,0.14,5.16,0.71,7.92,3.65c1.8,1.92,2.42,4.01,3.08,6.38c0.45,1.58,0.88,3.65,0.98,10.17
	c0.15,9.34-0.62,12.05-1.47,13.88c-0.91,1.97-2.41,4.02-3.59,4.49c-0.4,0.16,1.78-0.88-2.23,1.1c-0.45,0.22-0.64,0.3-0.56,0.37
	c0.76,0.62,3.7,1.04,5.4,3.86c1.08,1.79,1.3,3.9,1.4,4.84c0.11,1.07,0.08,1.88,0.07,2.1c-0.1,2.57-0.08,14.97,0,33.25h-16.51
	l-0.04-34.02c0.06-0.46,0.12-1.46-0.42-2.45c-0.86-1.58-2.6-1.96-3.22-2.1c-1.22-0.28-2.25-0.08-2.77,0.07v38.5h-16.93l-0.21-84.31
	L245.49,290.87z"/>
<path class="st2" d="M233.09,306.05v15.77c0.92,0.03,1.91,0.04,2.94,0c1.81-0.06,2.05-0.08,2.24-0.14c0.42-0.14,1.66-0.71,2.35-3.71
	c0.09-0.38,0.15-1,0.15-1.39c0.03-3.13,0.03-4.87,0.03-6.33c0-0.28-0.03-0.89-0.14-1.68c-0.1-0.72-0.37-1.19-0.68-1.53
	c-0.47-0.52-1.15-0.79-1.85-0.82L233.09,306.05z"/>
<polygon class="st2" points="266.09,290.63 266.09,374.94 300.58,374.94 300.58,359.01 283.34,358.8 283.34,338.61 299.32,338.82 
	299.11,323.46 283.34,323.46 283.34,306.43 299.92,306.5 299.88,290.63 "/>
<path class="st2" d="M325.37,360.99l0.24-54.94c0.75-0.09,1.85-0.16,3.15,0c1.63,0.2,2.88,0.36,3.72,1.33
	c0.9,1.04,0.84,2.44,0.77,3.08c0.04,32.06,0.06,44.26,0.04,45.43c0,0.1-0.13,1.35-0.4,2.15c-0.32,0.94-0.32,0.94-0.55,1.22
	c-0.01,0.01-0.01,0.01-0.02,0.02c-0.7,0.81-1.75,1.24-2.82,1.24h-3.89"/>
<path class="st2" d="M308.71,291.11v84.31c6.5,0.14,13.16,0.15,19.98,0c0.78-0.02,2.89,0.14,5.68-0.16
	c1.04-0.11,4.22-0.45,6.31-1.26c5.05-1.97,6.99-7.74,7.99-10.52c0.63-1.73,1.42-4.54,1.47-8.2c0.14-22.5,0.14-33.43,0-39.33
	c-0.02-0.67,0.12-3.73-0.21-8.41c-0.28-3.99-1.08-7.95-4-11.36c-2.74-3.21-6.38-4.5-8.83-5.05L308.71,291.11z"/>
</svg>
