<svg version="1.2" xmlns="http://www.w3.org/2000/svg" viewBox="0 0 3000 3000" width="3000" height="3000">
	<title>Logo - CREARED - PNG</title>
	<style>
		.s0 { fill: #181818 } 
		.s1 { fill: #ffbd59 } 
	</style>
	<g id="Background">
		<path id="Path1" fill-rule="evenodd" class="s0" d="m539.4 1108c6.1 0 15.8 0.7 21.6 1.5 5.8 0.9 15 2.7 20.5 4.1 5.5 1.4 14 4.4 19 6.7 5 2.4 12.5 6.7 16.9 9.7 4.3 3 11.2 9 15.2 13.3 4.1 4.2 8.6 9.6 10.1 11.9 1.5 2.4 4.4 7.7 6.4 11.8 2 4.1 4.8 11.8 6.2 17 1.5 5.2 3.1 13 3.6 17.3 0.7 4.5 1.1 27.9 1.1 104.7h-96l-0.3-44.3c-0.3-38.3-0.5-44.9-2-49.5-0.9-2.8-2.9-6.6-4.4-8.4-1.6-1.7-4.3-3.7-6-4.5-1.8-0.7-6.2-1.3-9.8-1.3-3.6 0-8 0.6-9.7 1.3-1.8 0.8-4.5 2.8-6 4.5-1.6 1.8-3.6 5.6-4.5 8.4-1.7 4.9-1.8 14.8-2.1 138.3-0.2 86.7 0.1 135.3 0.8 139.5 0.5 3.6 2.1 8.9 3.5 11.7 1.7 3.7 3.8 6.1 6.8 8 2.4 1.6 6.1 2.9 8.7 3.2 2.5 0.2 6.3-0.2 8.5-0.9 2.2-0.7 5.3-2.4 6.8-3.9 1.6-1.4 3.8-4.4 4.9-6.6 1.1-2.2 2.7-6.9 3.4-10.5 1-4.9 1.4-17.9 1.4-102h98v44.7c0 24.7-0.5 51.3-1 59.3-0.6 8-1.7 18.1-2.5 22.5-0.9 4.4-2.3 10.5-3.2 13.5-0.9 3-3 8.9-4.7 13-1.8 4.1-5.4 10.9-8.1 15-2.6 4.1-6.9 9.7-9.4 12.4-2.5 2.7-7.7 7.2-11.6 10.1-3.8 2.9-9.2 6.4-12 7.8-2.7 1.4-8.4 3.8-12.5 5.5-4.1 1.6-11.8 3.9-17 5-5.2 1.1-14.2 2.6-20 3.3-6.5 0.7-16.3 0.9-25.5 0.6-8.2-0.3-18.4-1.3-22.5-2.2-4.1-0.9-10.9-2.7-15-4.1-4.1-1.3-10.4-3.9-14-5.7-3.6-1.8-9.2-5-12.5-7.2-3.3-2.1-9.6-7.5-14-11.9-4.5-4.5-10.1-11-12.5-14.6-2.4-3.6-6.5-11-9.1-16.5-2.5-5.5-5.6-13.4-6.8-17.5-1.1-4.1-2.8-11.8-3.7-17-1.5-8.3-1.7-23.9-2.1-125.5-0.3-73.9-0.1-123.8 0.6-137.5 0.6-12.2 2-26.9 3.2-34 1.2-6.9 3.4-16.9 5-22.3 1.6-5.3 4.8-13.9 7.2-19 2.4-5 6.3-12.1 8.7-15.7 2.4-3.6 7.3-9.5 10.9-13.1 3.6-3.6 10-8.8 14.1-11.5 4.1-2.7 11.1-6.5 15.5-8.3 4.4-1.8 11.4-4.1 15.5-5.2 4.1-1 11.3-2.3 16-2.9 4.7-0.7 8.7-1.4 8.9-1.6 0.2-0.2 5.4-0.4 11.5-0.4zm148.1 764.3c5.8 0.1 9.2 0.8 12.5 2.4 2.5 1.2 6.1 3.7 11.5 8.6l-8 6.6-2.5-2.4c-1.4-1.3-4.2-3.1-6.2-3.9-2.1-0.9-6-1.6-8.8-1.6-2.7 0-6.7 0.8-8.7 1.8-2 0.9-4.5 3-5.5 4.7-1.1 1.9-1.8 4.9-1.8 8 0.1 4.5 0.5 5.4 4.3 9.1 2.9 2.8 7.7 5.6 15.5 9 6.3 2.7 13.5 6.5 16 8.4 2.9 2.2 5.7 5.4 7.2 8.5 2 4 2.5 6.4 2.4 12 0 4.9-0.7 8.2-2.1 11-1.1 2.2-3.8 5.6-6 7.5-2.2 1.9-6.6 4.4-9.9 5.5-3.2 1.1-8.1 2-10.9 2-2.7 0-7.5-0.8-10.5-1.9-3-1-7.4-3.1-9.7-4.7-2.4-1.6-5.7-4.8-7.3-7.1-1.7-2.4-3-4.8-3-5.3 0-0.5 1.9-2.1 4.3-3.4 4.1-2.3 4.2-2.3 5.2-0.5 0.5 1 2.8 3.7 5 5.9 2.2 2.2 5.8 4.6 8 5.2 2.2 0.7 5.8 1.3 8 1.3 2.2 0 5.6-0.4 7.5-0.9 1.9-0.6 4.9-2.2 6.6-3.8 1.9-1.6 3.6-4.6 4.3-7 0.8-3.3 0.8-5.3-0.1-8.5-0.8-2.5-2.7-5.3-4.9-7.2-2-1.7-6.7-4.4-10.5-6-3.8-1.6-10-4.5-13.8-6.5-4.2-2.2-8.5-5.4-10.8-8.1-2.5-3-4.2-6.1-4.8-9.2-0.7-3.2-0.7-6.5 0-10 0.6-2.9 2.1-6.8 3.3-8.7 1.2-1.9 3.8-4.6 5.7-6 1.9-1.4 5-3.2 7-3.9 2-0.7 6.9-1.1 11.5-0.9zm152.5-0.3c5.8 0 10.6 0.6 15.3 2 3.7 1.1 9.5 3.9 13 6.3 3.4 2.4 8.3 7 10.8 10.3 2.5 3.2 5.6 8.6 6.9 11.9 1.6 4.2 2.5 8.8 2.8 15.5 0.4 7.7 0.1 10.8-1.6 16.5-1.2 3.8-3.6 9.3-5.3 12-1.8 2.8-5.3 7-7.9 9.5-2.6 2.5-7.6 5.9-11.1 7.7-3.5 1.8-10 4-14.4 5-7.7 1.6-8.3 1.6-16-0.2-4.4-1-10.9-3.3-14.5-5.1-4-2-8.7-5.5-12.1-9.1-3.1-3.2-6.7-8-8.1-10.8-1.4-2.7-3.3-7.5-4.2-10.5-0.9-3-1.6-8.7-1.6-12.5 0-3.8 0.6-9.2 1.4-12 0.8-2.7 2.1-6.6 2.9-8.5 0.8-1.9 2.9-5.3 4.5-7.5 1.6-2.2 4.4-5.5 6.3-7.3 1.9-1.8 5.7-4.7 8.4-6.5 2.8-1.7 7.5-3.9 10.5-4.9 3.3-1 8.9-1.7 14-1.8zm-19 15.2c-2.5 1.4-6.5 4.8-8.9 7.4-2.5 2.7-5.6 7.4-6.9 10.4-1.4 3.2-2.6 8.4-2.9 12.5-0.5 5.5-0.1 8.5 1.6 14 1.1 3.8 3.7 9.1 5.6 11.8 1.9 2.6 5.6 6.3 8.3 8.2 2.6 1.9 7.9 4.5 11.7 5.6 5.4 1.7 8.6 2.1 14 1.7 4.6-0.3 9-1.4 12.8-3.2 3.1-1.4 8.1-4.8 11-7.5 3.3-3.1 6.3-7.1 8.2-11.2 2.7-5.8 3-7.4 3-16.4 0-9.1-0.3-10.6-3.1-16.5-1.7-3.6-5.1-8.5-7.5-10.9-2.4-2.4-7.3-5.8-10.9-7.5-5.4-2.5-8-3.1-15-3.3-5-0.2-10.2 0.3-12.5 1-2.2 0.7-6 2.5-8.5 3.9zm475-15.2c5.8 0 10.6 0.6 15 1.9 3.6 1.1 9.4 3.9 13 6.3 3.5 2.4 8.4 6.7 10.7 9.6 2.4 2.8 4.3 5.5 4.3 6 0 0.4-1.9 1.8-4.3 3.1-4 2.2-4.2 2.3-5.1 0.5-0.5-1.1-3-3.9-5.5-6.4-2.5-2.5-7.3-5.9-10.6-7.5-5.5-2.7-6.9-2.9-16.5-3-9.3 0-11.1 0.3-16 2.6-3 1.4-7.7 4.6-10.4 7-2.9 2.7-6.1 7-8 10.9-1.9 3.8-3.6 9-4 12.5-0.5 3.8-0.3 8.2 0.4 12 0.7 3.3 2.1 7.8 3.2 10 1.2 2.2 3.5 5.8 5.2 7.9 1.7 2.2 4.9 5.1 7.1 6.6 2.2 1.6 6.9 3.8 10.5 5 5.1 1.7 8.1 2.1 14 1.8 5.6-0.3 9.1-1.2 14-3.4 3.6-1.7 8.3-4.8 10.5-7 2.3-2.1 4.7-5 7-8.7l4.3 2.2c2.3 1.1 4.2 2.4 4.2 2.9-0.1 0.4-1.7 2.9-3.8 5.6-2 2.8-6.4 7-9.7 9.4-3.3 2.4-8.2 5.1-11 6.1-2.7 1-8.2 2.4-12 3.1-6.4 1.2-7.7 1.1-15.5-0.9-4.7-1.2-10.7-3.4-13.5-4.9-2.7-1.5-7.7-5.4-11.1-8.7-3.9-3.9-7.1-8.3-9.1-12.5-1.7-3.6-3.6-8.9-4.2-11.7-0.6-2.9-1.1-7.3-1.1-9.8 0-2.5 0.7-7.5 1.5-11.2 0.8-3.8 3.1-9.5 5.1-12.8 1.9-3.3 5.6-8.1 8.2-10.8 2.6-2.6 7.4-6.2 10.7-7.9 3.3-1.7 7.8-3.7 10-4.4 2.2-0.7 7.8-1.3 12.5-1.4zm266 0.1c4.7-0.1 10.8 0.5 13.5 1.3 2.8 0.7 7.5 2.6 10.5 4.1 3 1.5 8.2 5.5 11.5 8.9 3.4 3.5 7.3 8.8 8.9 12.1 1.6 3.3 3.5 9.4 4.4 13.5 1.2 6.2 1.3 8.8 0.3 15-0.7 4.6-2.5 10.4-4.7 15-2.4 5.1-5.4 9.3-9.2 13-3.2 3.1-8.6 7-12.2 8.8-3.6 1.7-10.1 3.9-14.5 4.9-7.6 1.6-8.4 1.6-16-0.2-4.4-1-10.7-3.2-14-4.9-3.3-1.6-8.7-5.7-12.1-9-3.9-3.9-7.2-8.4-9.1-12.6-1.7-3.6-3.6-8.9-4.2-11.7-0.6-2.9-1.1-7.3-1.1-9.8 0-2.5 0.7-7.5 1.5-11.2 0.8-3.8 3.1-9.5 5.1-12.8 1.9-3.3 5.6-8.1 8.2-10.8 2.6-2.6 7.4-6.2 10.7-7.9 3.3-1.7 7.8-3.7 10-4.4 2.2-0.7 7.8-1.3 12.5-1.3zm-20.9 16.4c-2.4 1.7-5.7 4.6-7.4 6.5-1.7 1.9-4.3 6.2-5.8 9.5-1.6 3.3-3.1 8.5-3.5 11.5-0.3 3.1-0.1 8.1 0.6 11.5 0.7 3.3 2.1 7.8 3.2 10 1.2 2.2 3.5 5.8 5.2 7.9 1.7 2.2 4.9 5.1 7.1 6.6 2.2 1.6 6.9 3.8 10.5 5 5.1 1.7 8.1 2.1 14 1.8 5.8-0.3 9-1.1 14.3-3.6 4-1.9 8.6-5.1 11.3-7.9 2.5-2.7 5.6-7 7-9.8 1.3-2.7 2.7-7.7 3.2-11 0.6-3.3 0.6-8.5 0.2-11.5-0.4-3-1.9-8.1-3.3-11.2-1.5-3.2-4.8-8-7.4-10.6-2.7-2.6-7.5-6.1-10.8-7.7-4.9-2.4-7.6-2.9-15-3.2-6.7-0.3-10.3 0.1-14.1 1.4-2.7 1-7 3.1-9.3 4.8zm-1277.1-15.5h63v10h-26v85h-10v-85h-27zm138.9 0h10l0.3 33.8c0.3 33.7 0.3 33.7 2.8 38.6 1.4 2.7 4.1 6.2 6 7.8 1.9 1.5 5.7 3.6 8.5 4.4 3.4 1.1 7 1.5 11 1.2 3.3-0.3 7.6-1.3 9.5-2.3 1.9-0.9 4.8-2.9 6.3-4.4 1.6-1.4 3.9-4.4 5-6.6 2.1-3.9 2.2-5.2 2.5-72.5h10l-0.1 35.8c-0.2 35-0.2 35.8-2.5 40.7-1.3 2.8-3.5 6.3-5 7.8-1.5 1.6-4.6 4.2-7 5.8-2.3 1.6-7.9 3.9-12.5 5.1-7.4 2-8.8 2-14.2 0.9-3.3-0.6-8.7-2.5-12-4-3.7-1.8-7.6-4.7-10.3-7.7-2.3-2.7-5-6.9-5.9-9.4-1.5-3.8-1.8-9.8-2.1-39.7zm691.1 0h10l0.3 34.2c0.2 31.2 0.4 34.6 2.1 37.8 1 1.9 3.1 4.7 4.5 6.3 1.5 1.6 4.4 3.8 6.6 4.9 2.2 1.1 6.7 2.3 10 2.5 4.1 0.4 7.7 0 11-1.1 2.8-0.9 6.6-2.9 8.5-4.5 2-1.5 4.7-5 8.5-12.6l0.2-67.5h10l-0.1 35.2c-0.1 30.2-0.4 35.9-1.8 39.8-0.9 2.4-3.6 6.6-6 9.3-2.6 3-6.5 5.9-10.3 7.7-3.3 1.6-8.8 3.4-12.2 4.2-5.5 1.1-7 1-13-0.6-3.7-1-8.3-2.6-10.2-3.5-1.9-0.9-5.5-3.5-8-5.7-2.6-2.4-5.6-6.5-7.1-9.5-2.4-5.4-2.5-5.5-2.7-41.2zm1579 0h63v3.5c0 1.9-0.2 4.2-0.5 5-0.4 1.2-2.8 1.5-26.5 1.5v85h-10v-85h-26z"/>
		<path id="Path2" fill-rule="evenodd" class="s1" d="m1517.1 1108.9l85.7 0.4c84 0.3 85.9 0.4 94.7 2.5 5 1.2 12.6 4 17 6.1 4.4 2.2 10.8 6.4 14.3 9.3 3.4 2.9 8.3 8 10.8 11.3 2.5 3.3 6.3 9.6 8.4 14 2.2 4.4 4.8 11.4 6 15.5 1.1 4.1 2.9 12.9 4 19.5 1.1 6.6 2.5 18.7 3.1 27 0.7 8.6 0.9 25 0.6 38.5-0.3 15.9-1 26.6-2.2 33-1 5.2-3 13.5-4.7 18.5-1.6 4.9-4.6 11.9-6.7 15.5-2.1 3.6-7 9.4-10.8 13-3.8 3.6-8.5 7.4-10.6 8.5-2 1.1-3.7 2.2-3.7 2.5 0 0.3 1.9 1.5 4.2 2.6 2.4 1.2 6.1 3.7 8.3 5.6 2.2 1.9 5.8 6.1 8 9.4 2.1 3.2 5 8.8 6.3 12.4 1.3 3.6 3 9.6 3.8 13.5 0.8 3.8 1.8 12.2 2.1 18.5 0.3 6.3 0.3 52.8-0.7 195h-103v-101.3c0-87.7-0.2-101.9-1.5-106.2-0.8-2.8-2.5-6-3.8-7.3-1.2-1.3-4.4-2.9-7.2-3.7-2.7-0.8-7.6-1.6-16.5-2.5v221h-106zm7.9 485.1h90c0-198 0.3-221.1 1.3-221.6 0.7-0.3 6.2-0.1 12.2 0.5 6.1 0.6 13.3 1.8 16 2.8 2.8 0.9 6.4 3.1 8 4.8 1.7 1.6 4 5.2 5 8 2 4.8 2 8.2 2.3 105.2l0.2 100.3h86.5c1.2-93.4 1.5-136.3 1.5-155.5 0-26-0.4-37.5-1.5-44.8-0.8-5.3-2.9-13.4-4.7-18-2.5-6.3-4.5-9.6-8.7-14.1-3.5-3.6-7.9-6.9-11.6-8.7-3.3-1.6-9.7-3.7-14.2-4.7-4.6-0.9-8.3-2.2-8.3-2.7 0-0.6 1.9-1.6 4.2-2.3 2.4-0.8 8.6-3.4 13.8-5.9 7.6-3.7 10.9-6 16.3-11.5 4.6-4.7 7.8-9 10.2-14.1 1.9-4 4.3-10.6 5.4-14.7 1.1-4.1 2.6-10.9 3.3-15 0.9-5.2 1.3-17.2 1.3-39.5-0.1-24.5-0.5-34.9-1.8-44.5-1-6.9-2.9-17.2-4.3-23-1.4-5.8-4.2-14.1-6.3-18.5-2.1-4.4-5.9-10.7-8.6-14-2.6-3.3-7.1-7.9-9.9-10.2-2.8-2.3-8.5-5.8-12.6-7.7-4.1-2-10.6-4.3-14.5-5.3-6.2-1.5-16.1-1.7-88.7-2l-81.7-0.4zm276-485h201v101h-95v87h92v99h-92v103h102v102h-208zm7 485h193v-87h-102v-119h92v-83h-92v-102h96v-86h-187zm239-485h73c46.2 0 76.6 0.4 82.8 1.1 5.3 0.6 12.9 1.9 16.7 2.9 3.9 1 10.6 3.2 15 5 4.4 1.7 11.2 5.2 15 7.8 3.9 2.5 9.8 7.4 13.3 10.9 3.4 3.5 8.2 9.3 10.6 13 2.4 3.8 6 10.4 7.9 14.8 1.9 4.4 4.4 11.4 5.5 15.5 1.2 4.1 2.9 11.8 3.8 17 1.4 8 1.8 21.3 2.4 84 0.5 41 0.8 100.6 0.9 132.5 0 31.9-0.4 63.2-0.9 69.5-0.6 6.3-1.9 17.1-3.1 24-1.1 6.9-3.8 17.7-5.9 24-2 6.3-5.2 14.4-7 18-1.8 3.6-5.2 9.4-7.5 13-2.4 3.6-7.8 9.9-12.2 14-5 4.7-11 9.2-16.3 12.1-4.7 2.6-11.4 5.6-15 6.7-3.6 1.2-9.4 2.9-13 3.8-5.8 1.6-14.8 1.8-166 2.4zm8 485c94.2 0 127.8-0.5 135.5-1 8.5-0.6 17.9-2 24-3.5 5.5-1.4 13.6-4.2 18-6.4 4.4-2.1 10.8-5.9 14.3-8.5 3.4-2.5 8.7-7.6 11.7-11.4 3.1-3.7 8-11.7 11-17.7 3-6.1 6.8-15.7 8.4-21.5 1.6-5.8 3.7-14.8 4.5-20 0.9-5.2 2-14.7 2.6-21 0.5-6.3 0.9-39 0.9-72.5-0.1-33.6-0.5-93.4-0.9-133-0.6-56.4-1.1-73.7-2.3-80-0.8-4.4-2-10-2.6-12.5-0.7-2.5-2.7-8.6-4.6-13.5-1.9-5-5.7-12.4-8.3-16.5-2.7-4.1-8.5-10.9-12.9-15-5.7-5.4-10.3-8.7-16.4-11.7-4.6-2.2-11.5-5-15.4-6.1-3.8-1.2-9.5-2.6-12.5-3.3-3.9-0.9-26.6-1.3-80.2-1.6l-74.7-0.4z"/>
		<path id="Path3" fill-rule="evenodd" class="s0" d="m708.1 1112.9l83.7 0.4c82.5 0.3 83.8 0.3 91.9 2.5 4.6 1.2 11.8 3.9 16 5.9 4.9 2.4 10.2 6.2 14.6 10.3 3.9 3.6 8.8 9.2 11 12.5 2.3 3.3 5.5 9.4 7.2 13.5 1.8 4.1 4.1 11.3 5.3 16 1.1 4.7 2.8 13.6 3.6 19.7 0.9 6.2 2.1 20 2.7 30.5 0.6 10.7 0.8 25.8 0.4 33.8-0.4 8-1.3 18.8-2.1 24-0.8 5.2-2.3 12.9-3.5 17-1.1 4.1-3.7 10.9-5.7 15-2.6 5.4-5.7 9.6-11.2 15.1-5.3 5.4-9.7 8.7-15.2 11.5-4.3 2.1-7.5 4.2-7.3 4.6 0.3 0.5 1.3 0.8 2.2 0.8 1 0 4.3 1.3 7.3 2.8 3 1.5 7.4 4.3 9.8 6.2 2.4 1.9 5.9 5.7 7.7 8.5 1.8 2.7 4.5 8 5.9 11.7 1.4 3.8 3.3 10.7 4.1 15.5 1.4 7.5 1.6 21.9 1.5 97.8 0 48.9-0.3 93.6-1.5 109.5h-93.5l-0.3-100.8c-0.2-91.3-0.4-101.2-1.9-105.7-0.9-2.8-3-6.2-4.5-7.6-1.5-1.5-3.9-3.2-5.3-3.9-1.4-0.7-5.9-1.9-10-2.6-4.1-0.7-9.2-1.3-15-1.4l-0.5 221.5-97.5 0.5zm97.9 179.1c26.7 0 28.9-0.3 31.8-2 1.7-1.1 4.3-3.9 5.6-6.3 1.4-2.3 3.3-7.1 4.2-10.7 1.5-5.2 1.8-10.5 1.9-26.5 0-12.5-0.5-22.4-1.3-26.5-0.7-3.6-2.2-8-3.2-9.8-1.1-1.7-3.2-4-4.7-5-2.2-1.4-5.5-1.8-18.4-2l-15.7-0.4zm185-179h194v94h-95v94h91v91h-91v111h101v95h-200zm280 0l164.4 0.5 23.1 241.5c12.7 132.8 23 241.9 22.8 242.3-0.2 0.4-20.8 0.7-91.3 0.7l-0.5-3.2c-0.2-1.8-1.8-19.3-3.5-38.8-1.7-19.5-3-35.8-3-36.2 0-0.4-13.3-0.8-29.5-0.8-23 0-29.5 0.3-29.5 1.3 0 0.7-1.1 17.9-2.6 38.2-1.4 20.4-2.7 37.6-3 38.3-0.3 0.9-10.6 1.2-46.9 1.2-25.6 0-46.7-0.3-46.8-0.7-0.2-0.4 10.1-108.6 22.9-240.3 12.8-131.7 23.3-240.5 23.3-241.7zm69.5 206.5c-4.7 64.9-8.5 119-8.5 120.2v2.3h43c0-5.1-4.5-59.2-10-123.5-5.5-64.4-10.2-118.5-10.5-120.3-0.4-2.4-1-3.2-2.4-3.2-1.5 0-2.1 0.8-2.5 3.2-0.3 1.8-4.4 56.4-9.1 121.3zm237.6 521.5c2.7 0 4.9 0.4 4.9 1 0 0.5-3.9 5.8-8.7 11.7-6.9 8.4-9.4 10.8-11.5 11-1.6 0.2-2.7-0.2-2.6-0.8 0-0.6 2.6-5.4 5.6-10.7 3-5.4 6-10.3 6.5-11 0.5-0.7 3.1-1.2 5.8-1.2zm-605.1 32h10v85h35v10h-45zm447 0h11v95h-11zm275 0l9.5 0.1 28.5 37.9c15.7 20.8 28.9 37.7 29.3 37.4 0.4-0.2 0.7-17.3 0.7-75.4h10v95h-9.5l-58-77.4-0.5 77.4h-10zm266 0h16.3c11.5 0 18 0.4 22.2 1.5 3.3 0.9 8.2 2.8 10.9 4.3 2.7 1.5 7.5 5.2 10.5 8.2 3.2 3.2 7 8.4 8.8 12 1.8 3.6 3.8 9.6 4.5 13.5 0.9 5.4 0.9 8.7 0.1 14.5-0.8 4.6-2.5 10.1-4.6 14.5-2.4 4.8-5.4 8.8-9.8 13-3.5 3.3-8.5 7-11.1 8.2-2.6 1.3-7.4 3-10.5 3.8-4 1-10.7 1.5-37.3 1.5zm10 85c14.7 0 21.4-0.5 24.3-1.1 2.9-0.7 7.2-2.2 9.7-3.4 2.5-1.3 6.5-4.3 8.9-6.7 2.3-2.4 5.3-6.3 6.6-8.8 1.3-2.5 2.9-7.4 3.6-11 1-5.2 1-7.8 0-13-0.7-3.6-2.4-8.7-3.7-11.3-1.3-2.6-4.3-6.6-6.7-9-2.3-2.3-6.4-5.2-9-6.5-2.6-1.2-6.6-2.7-8.9-3.2-2.4-0.5-8.9-1-14.5-1h-10.3zm148-85h52l-0.5 9.5-41.5 0.5v33h36v9h-36v33h42v10h-52zm238 0l10.5-0.1 18 40.7c9.9 22.3 18.2 40.7 18.5 40.9 0.3 0.2 8.6-18.1 36.5-81.5h10.5v95h-10v-36.3c0.1-19.9-0.3-35.8-0.7-35.4-0.4 0.5-7.8 16.7-31.8 71.2h-8.9l-15.5-35.7c-8.6-19.6-15.9-36-16.4-36.5-0.4-0.4-0.7 15.7-0.7 72.7h-10zm181 0h10v39h3.3c2.9 0 5.3-2.1 41.8-39h14.4l-44 43.8 45.5 51.2-14.5-0.1-20-23.6c-18.7-21.9-20.2-23.5-26-22.8l-0.5 46.5h-10z"/>
		<path id="Path4" fill-rule="evenodd" class="s1" d="m2145.2 1193.8l15.7 0.4c12 0.3 16.5 0.8 19.6 2.2 2.2 0.9 5.3 2.9 6.9 4.4 1.5 1.5 3.6 4.5 4.6 6.7 1 2.2 2.3 7.8 2.9 12.5 0.9 6.1 1.1 46.1 0.6 275.5l-2.6 5.5c-1.4 3-4.1 6.7-6 8.2-1.8 1.5-5.6 3.5-8.4 4.4-3 0.9-10.7 1.8-33.5 2.9zm7.8 314.7c17.8-1.1 21.6-1.8 24.7-3.4 2.5-1.2 5.4-3.8 7-6.3l2.8-4.1c0.4-222.1 0.2-270.5-0.5-274.9-0.6-3.8-1.7-8.1-2.5-9.8-0.8-1.6-3-3.9-4.8-5-1.8-1-5.2-2.1-7.7-2.4-2.5-0.3-7.7-0.8-11.7-1.2l-7.1-0.6zm-537-309.5h15.8c8.6 0 17.4 0.5 19.5 1 2 0.6 5.2 2.3 7 3.8 1.8 1.6 4 4.8 5 7 0.9 2.3 2.2 7.2 2.8 11 0.5 3.7 1 14.4 1 23.7 0 11.2-0.5 19.8-1.5 25-0.9 4.4-2.8 10.4-4.3 13.4-1.5 3-4.5 6.8-10.5 11.6l-34.8 0.5zm8 89c18.4 0 22.9-0.4 24.8-1.4 1.5-0.8 3.7-3.1 4.9-5.2 1.2-2.2 2.9-7 3.9-10.9 1.2-5.1 1.6-11.7 1.6-24 0-9.3-0.5-20.1-1.1-24-0.6-3.8-2-8.5-3.1-10.2-1.1-1.8-3.1-3.7-4.5-4.3-1.4-0.5-7.9-1-14.5-1h-12z"/>
	</g>
</svg>