<svg width="90" height="25" viewBox="0 0 90 25" fill="none" xmlns="http://www.w3.org/2000/svg">
<path d="M7.14641 13.7525H11.7636C11.7309 15.4988 11.7391 16.7008 11.7636 17.5726C11.7718 17.8298 11.7908 18.42 11.6874 19.1943C11.6221 19.6789 11.5541 20.1689 11.331 20.7456C11.1949 21.0921 10.9283 21.7581 10.2998 22.3835C9.45909 23.2201 8.48504 23.4719 7.9817 23.5937C7.59534 23.6885 7.31238 23.7074 6.77911 23.7507C6.21046 23.7941 5.54387 23.8428 4.71947 23.6939C4.53989 23.6614 4.227 23.6045 3.87602 23.48C2.66799 23.0577 1.93882 22.1994 1.71571 21.9287C0.755274 20.77 0.572981 19.5083 0.529448 18.9967L0.442383 11.5515C0.475032 9.95413 0.477753 8.64649 0.472312 7.72328C0.464149 6.51852 0.447825 6.26132 0.515844 5.71714C0.649163 4.66669 0.809689 3.38612 1.78917 2.25716C2.01772 1.99184 2.86117 1.08217 4.19163 0.749167C4.7113 0.619215 5.16568 0.611096 6.05265 0.592145C6.82808 0.575901 7.21987 0.57048 7.73955 0.678774C8.72719 0.884532 9.41555 1.34478 9.6577 1.51805C9.98148 1.75088 10.8086 2.36274 11.2739 3.49712C11.4725 3.98444 11.5459 4.41762 11.5731 4.7073L11.6602 9.73213L7.18178 9.77545C7.17362 8.81705 7.16818 7.85324 7.16818 6.88672C7.16818 6.70262 7.17906 6.41834 7.16818 5.84709C7.16274 5.51138 7.15185 5.36248 7.06751 5.19192C6.93963 4.93201 6.69748 4.7452 6.46622 4.66398C6.15877 4.55569 5.80506 4.60713 5.48945 4.79394C5.23098 4.94555 5.07861 5.22711 5.07317 5.52763L4.96434 13.9177L4.99155 16.2893C4.9861 16.8064 4.97794 17.6484 4.97522 18.1655C4.96978 18.2873 4.97522 18.4389 5.00787 18.6014C5.04868 18.799 5.10582 19.0887 5.35069 19.3269C5.41327 19.3892 5.74521 19.6951 6.19414 19.641C6.67027 19.5814 6.94507 19.1699 7.01037 18.9994C7.17906 18.5608 7.21171 18.0843 7.18178 17.9327L7.14641 13.7525Z" fill="#F8D038"/>
<path d="M21.8904 0.789771C22.293 0.827674 23.2943 0.981991 24.0452 1.77795C24.535 2.29776 24.7037 2.8636 24.8832 3.50524C25.0057 3.933 25.1227 4.49342 25.1499 6.25861C25.1907 8.78726 24.9812 9.52096 24.7499 10.0164C24.5023 10.5497 24.0942 11.1047 23.7732 11.232C23.6643 11.2753 24.2575 10.9937 23.1664 11.5298C23.044 11.5894 22.9923 11.611 23.0141 11.63C23.2208 11.7978 24.0207 11.9115 24.4833 12.675C24.7771 13.1596 24.837 13.7309 24.8642 13.9854C24.8941 14.275 24.886 14.4943 24.8832 14.5539C24.856 15.2497 24.8615 18.6068 24.8832 23.5558H20.3939L20.3831 14.3454C20.3994 14.2209 20.4157 13.9502 20.2688 13.6821C20.0348 13.2544 19.5614 13.1515 19.3927 13.1136C19.0607 13.0378 18.7805 13.0919 18.639 13.1325V23.5558H14.0327L13.9756 0.730209L21.8904 0.789771Z" fill="white"/>
<path d="M21.8904 0.789771C22.293 0.827674 23.2943 0.981991 24.0452 1.77795C24.535 2.29776 24.7037 2.8636 24.8832 3.50524C25.0057 3.933 25.1227 4.49342 25.1499 6.25861C25.1907 8.78726 24.9812 9.52096 24.7499 10.0164C24.5023 10.5497 24.0942 11.1047 23.7732 11.232C23.6643 11.2753 24.2575 10.9937 23.1664 11.5298C23.044 11.5894 22.9923 11.611 23.0141 11.63C23.2208 11.7978 24.0207 11.9115 24.4833 12.675C24.7771 13.1596 24.837 13.7309 24.8642 13.9854C24.8941 14.275 24.886 14.4943 24.8832 14.5539C24.856 15.2497 24.8615 18.6068 24.8832 23.5558H20.3939L20.3831 14.3454C20.3994 14.2209 20.4157 13.9502 20.2688 13.6821C20.0348 13.2544 19.5614 13.1515 19.3927 13.1136C19.0607 13.0378 18.7805 13.0919 18.639 13.1325V23.5558H14.0327L13.9756 0.730209L21.8904 0.789771Z" fill="#F8D038"/>
<path d="M18.5139 4.75603V9.02551C18.7642 9.03363 19.0336 9.03634 19.3138 9.02551C19.8063 9.00927 19.8716 9.00385 19.9233 8.9876C20.0376 8.9497 20.3749 8.79539 20.5627 7.98318C20.5872 7.8803 20.6035 7.71244 20.6035 7.60686C20.6116 6.75946 20.6116 6.28839 20.6116 5.89311C20.6116 5.81731 20.6035 5.65216 20.5736 5.43828C20.5463 5.24335 20.4729 5.11611 20.3885 5.02406C20.2607 4.88328 20.0757 4.81018 19.8852 4.80206L18.5139 4.75603Z" fill="black"/>
<path d="M27.4219 0.724792V23.5504H36.8059V19.2376L32.1152 19.1807V13.7146L36.4631 13.7715L36.4059 9.6157H32.1152V5.00239L36.6236 5.02134L36.6154 0.724792H27.4219Z" fill="#F8D038"/>
<path d="M46.3475 23.5504H50.6817L48.5078 0.724792H40.7535L38.5225 23.5504H42.9274L43.2158 19.7791L46.0291 19.8359L46.3475 23.5504Z" fill="#F8D038"/>
<path d="M43.5969 16.2H45.6947L44.6036 4.49341H44.6009L43.5969 16.2Z" fill="black"/>
<path d="M60.4986 0.646278C60.9012 0.68418 61.9025 0.838497 62.6534 1.63446C63.1432 2.15427 63.3119 2.7201 63.4914 3.36174C63.6139 3.7895 63.7309 4.34993 63.7581 6.11511C63.7989 8.64377 63.5894 9.37746 63.3581 9.87291C63.1105 10.4063 62.7024 10.9613 62.3813 11.0885C62.2725 11.1318 62.8656 10.8503 61.7746 11.3863C61.6522 11.4459 61.6005 11.4675 61.6222 11.4865C61.829 11.6543 62.6289 11.768 63.0915 12.5315C63.3853 13.0161 63.4452 13.5874 63.4724 13.8419C63.5023 14.1315 63.4941 14.3508 63.4914 14.4104C63.4642 15.1062 63.4697 18.4633 63.4914 23.4123H58.9994L58.9885 14.2019C59.0048 14.0774 59.0212 13.8067 58.8742 13.5386C58.6403 13.1109 58.1668 13.008 57.9982 12.9701C57.6662 12.8943 57.386 12.9484 57.2445 12.9891V23.4123H52.6382L52.5811 0.586716L60.4986 0.646278Z" stroke="#F8D038" stroke-miterlimit="10"/>
<path d="M57.1248 4.75603V9.02551C57.3751 9.03363 57.6444 9.03634 57.9247 9.02551C58.4171 9.00927 58.4824 9.00385 58.5341 8.9876C58.6484 8.9497 58.9858 8.79539 59.1735 7.98318C59.198 7.8803 59.2143 7.71244 59.2143 7.60686C59.2225 6.75946 59.2225 6.28839 59.2225 5.89311C59.2225 5.81731 59.2143 5.65216 59.1844 5.43828C59.1572 5.24335 59.0837 5.11611 58.9994 5.02406C58.8715 4.88328 58.6865 4.81018 58.496 4.80206L57.1248 4.75603Z" stroke="#F8D038" stroke-width="1.6358" stroke-miterlimit="10"/>
<path d="M66.1033 0.581299V23.4069H75.4873V19.0941L70.7966 19.0372V13.5711L75.1445 13.628L75.0873 9.4695H70.7966V4.8589L75.3077 4.87785L75.2968 0.581299H66.1033Z" stroke="#F8D038" stroke-miterlimit="10"/>
<path d="M82.2322 19.6302L82.2975 4.75602C82.5015 4.73166 82.8008 4.71271 83.1545 4.75602C83.598 4.81017 83.9381 4.85349 84.1667 5.11611C84.4115 5.39767 84.3952 5.77669 84.3762 5.94996C84.387 14.6297 84.3925 17.9327 84.387 18.2494C84.387 18.2765 84.3517 18.6149 84.2782 18.8315C84.1912 19.086 84.1911 19.086 84.1286 19.1618C84.1258 19.1645 84.1259 19.1645 84.1231 19.1672C83.9327 19.3865 83.647 19.5029 83.3559 19.5029H82.2975" stroke="#F8D038" stroke-miterlimit="10"/>
<path d="M77.6992 0.711258V23.5369C79.4677 23.5748 81.2798 23.5775 83.1354 23.5369C83.3476 23.5315 83.9217 23.5748 84.6808 23.4936C84.9637 23.4638 85.8289 23.3717 86.3976 23.1524C87.7716 22.6191 88.2994 21.0569 88.5715 20.3043C88.7429 19.8359 88.9579 19.0752 88.9715 18.0843C89.0096 11.9928 89.0096 9.03364 88.9715 7.4363C88.966 7.25491 89.0041 6.42646 88.9143 5.15943C88.8381 4.0792 88.6205 3.00709 87.826 2.08388C87.0805 1.21483 86.0901 0.865582 85.4236 0.716678L77.6992 0.711258Z" stroke="#F8D038" stroke-miterlimit="10"/>
</svg>
