<svg width="209" height="56" viewBox="0 0 209 56" fill="none" xmlns="http://www.w3.org/2000/svg">
<path d="M15.7039 31.853H26.5194C26.443 35.9435 26.4621 38.7593 26.5194 40.8014C26.5386 41.4038 26.5832 42.7864 26.341 44.6001C26.188 45.7353 26.0287 46.8832 25.5061 48.234C25.1874 49.0457 24.5628 50.6058 23.0906 52.0708C21.1212 54.0304 18.8396 54.6202 17.6605 54.9056C16.7555 55.1276 16.0927 55.1719 14.8435 55.2734C13.5115 55.3749 11.95 55.489 10.0189 55.1402C9.59824 55.0641 8.86531 54.931 8.04315 54.6392C5.21339 53.6499 3.50533 51.6396 2.98272 51.0054C0.732933 48.2911 0.30592 45.3358 0.203946 44.1372L0 26.6971C0.07648 22.9555 0.0828537 19.8924 0.070107 17.7298C0.0509871 14.9077 0.012747 14.3052 0.17208 13.0305C0.484374 10.5699 0.860399 7.57018 3.1548 4.92564C3.69016 4.30414 5.66589 2.17328 8.78245 1.39324C9.99976 1.08883 11.0641 1.06981 13.1418 1.02542C14.9582 0.987369 15.876 0.97467 17.0933 1.22834C19.4068 1.71032 21.0193 2.78844 21.5865 3.19431C22.3449 3.73971 24.2824 5.17296 25.3722 7.83019C25.8375 8.97172 26.0096 9.98641 26.0733 10.665L26.2772 22.4354L15.7867 22.5369C15.7676 20.2919 15.7549 18.0342 15.7549 15.7702C15.7549 15.3389 15.7804 14.673 15.7549 13.3349C15.7421 12.5485 15.7166 12.1997 15.5191 11.8002C15.2195 11.1914 14.6523 10.7538 14.1106 10.5635C13.3904 10.3098 12.5618 10.4303 11.8225 10.8679C11.2171 11.2231 10.8602 11.8826 10.8474 12.5866L10.5925 32.2399L10.6562 37.7953C10.6435 39.0066 10.6243 40.9789 10.618 42.1902C10.6052 42.4756 10.618 42.8308 10.6945 43.2113C10.7901 43.6742 10.9239 44.3528 11.4975 44.9109C11.6441 45.0567 12.4216 45.7734 13.4732 45.6465C14.5886 45.507 15.2323 44.543 15.3852 44.1435C15.7804 43.1161 15.8569 42 15.7867 41.6448L15.7039 31.853Z" fill="black"/>
<path d="M50.2412 1.48834C51.1844 1.57712 53.5298 1.9386 55.2889 3.8031C56.4361 5.02073 56.8312 6.34618 57.2519 7.84919C57.5387 8.8512 57.8127 10.164 57.8765 14.2988C57.9721 20.2221 57.4813 21.9407 56.9396 23.1013C56.3596 24.3506 55.4036 25.6507 54.6515 25.9488C54.3966 26.0502 55.786 25.3907 53.2303 26.6464C52.9435 26.7859 52.8224 26.8366 52.8734 26.881C53.3578 27.2742 55.2315 27.5406 56.315 29.329C57.0033 30.4642 57.1435 31.8023 57.2072 32.3984C57.2774 33.077 57.2582 33.5907 57.2519 33.7302C57.1881 35.36 57.2009 43.2239 57.2519 54.8168H46.7359L46.7104 33.2419C46.7486 32.9502 46.7869 32.316 46.4427 31.6881C45.8946 30.6861 44.7856 30.4451 44.3905 30.3564C43.6129 30.1788 42.9565 30.3056 42.6251 30.4007V54.8168H31.835L31.7012 1.34882L50.2412 1.48834Z" fill="black"/>
<path d="M50.2412 1.48834C51.1844 1.57712 53.5298 1.9386 55.2889 3.8031C56.4361 5.02073 56.8312 6.34618 57.2519 7.84919C57.5387 8.8512 57.8127 10.164 57.8765 14.2988C57.9721 20.2221 57.4813 21.9407 56.9396 23.1013C56.3596 24.3506 55.4036 25.6507 54.6515 25.9488C54.3966 26.0502 55.786 25.3907 53.2303 26.6464C52.9435 26.7859 52.8224 26.8366 52.8734 26.881C53.3578 27.2742 55.2315 27.5406 56.315 29.329C57.0033 30.4642 57.1435 31.8023 57.2072 32.3984C57.2774 33.077 57.2582 33.5907 57.2519 33.7302C57.1881 35.36 57.2009 43.2239 57.2519 54.8168H46.7359L46.7104 33.2419C46.7486 32.9502 46.7869 32.316 46.4427 31.6881C45.8946 30.6861 44.7856 30.4451 44.3905 30.3564C43.6129 30.1788 42.9565 30.3056 42.6251 30.4007V54.8168H31.835L31.7012 1.34882L50.2412 1.48834Z" fill="black"/>
<path d="M42.3315 10.7791V20.7802C42.9179 20.7992 43.5489 20.8056 44.2053 20.7802C45.3589 20.7421 45.5118 20.7294 45.6329 20.6914C45.9006 20.6026 46.6909 20.2411 47.1307 18.3386C47.188 18.0976 47.2263 17.7044 47.2263 17.4571C47.2454 15.4721 47.2454 14.3686 47.2454 13.4427C47.2454 13.2651 47.2263 12.8783 47.1562 12.3773C47.0924 11.9207 46.9203 11.6226 46.7228 11.407C46.4232 11.0772 45.9898 10.906 45.5437 10.8869L42.3315 10.7791Z" fill="#F8D038"/>
<path d="M63.1982 1.33612V54.8041H85.1799V44.7016L74.1922 44.5684V31.7642L84.3768 31.8974L84.243 22.1627H74.1922V11.3562L84.7529 11.4006L84.7337 1.33612H63.1982Z" fill="black"/>
<path d="M107.531 54.8041H117.684L112.591 1.33612H94.4273L89.2012 54.8041H99.5196L100.195 45.9699L106.785 46.1031L107.531 54.8041Z" fill="black"/>
<path d="M101.087 37.586H106.001L103.446 10.1639H103.439L101.087 37.586Z" fill="#F8D038"/>
<path d="M140.679 1.15222C141.622 1.241 143.967 1.60248 145.726 3.46698C146.874 4.68461 147.269 6.01006 147.689 7.51307C147.976 8.51508 148.25 9.82785 148.314 13.9627C148.41 19.886 147.919 21.6046 147.377 22.7652C146.797 24.0145 145.841 25.3146 145.089 25.6127C144.834 25.7141 146.224 25.0546 143.668 26.3103C143.381 26.4498 143.26 26.5005 143.311 26.5449C143.795 26.9381 145.669 27.2044 146.753 28.9928C147.441 30.128 147.581 31.4662 147.645 32.0623C147.715 32.7409 147.696 33.2546 147.689 33.3941C147.626 35.0239 147.638 42.8878 147.689 54.4807H137.167L137.142 32.9058C137.18 32.614 137.218 31.9798 136.874 31.352C136.326 30.35 135.217 30.109 134.822 30.0202C134.044 29.8427 133.388 29.9695 133.056 30.0646V54.4807H122.266L122.132 1.0127L140.679 1.15222Z" stroke="white" stroke-width="1.6358" stroke-miterlimit="10"/>
<path d="M132.776 10.7791V20.7802C133.362 20.7992 133.993 20.8056 134.65 20.7802C135.803 20.7421 135.956 20.7294 136.077 20.6914C136.345 20.6026 137.135 20.2411 137.575 18.3386C137.632 18.0976 137.671 17.7044 137.671 17.4571C137.69 15.4721 137.69 14.3686 137.69 13.4427C137.69 13.2651 137.671 12.8783 137.6 12.3773C137.537 11.9207 137.365 11.6226 137.167 11.407C136.868 11.0772 136.434 10.906 135.988 10.8869L132.776 10.7791Z" stroke="white" stroke-width="1.6358" stroke-miterlimit="10"/>
<path d="M153.808 1V54.468H175.789V44.3654L164.802 44.2322V31.4281L174.986 31.5613L174.852 21.8202H164.802V11.0201L175.369 11.0645L175.343 1H153.808Z" stroke="white" stroke-width="1.6358" stroke-miterlimit="10"/>
<path d="M191.589 45.6211L191.742 10.7791C192.22 10.722 192.921 10.6776 193.749 10.7791C194.788 10.906 195.585 11.0074 196.12 11.6226C196.694 12.2821 196.656 13.17 196.611 13.5759C196.637 33.9078 196.649 41.6448 196.637 42.3868C196.637 42.4502 196.554 43.243 196.382 43.7503C196.178 44.3464 196.178 44.3464 196.031 44.524C196.025 44.5303 196.025 44.5303 196.018 44.5367C195.572 45.0504 194.903 45.3231 194.221 45.3231H191.742" stroke="white" stroke-width="1.6358" stroke-miterlimit="10"/>
<path d="M180.971 1.30441V54.7724C185.113 54.8612 189.358 54.8675 193.705 54.7724C194.202 54.7597 195.547 54.8612 197.325 54.6709C197.988 54.6012 200.014 54.3855 201.346 53.8718C204.565 52.6225 205.801 48.9633 206.439 47.2002C206.84 46.1031 207.344 44.321 207.375 41.9999C207.465 27.7308 207.465 20.7992 207.375 17.0575C207.363 16.6326 207.452 14.692 207.242 11.7241C207.063 9.19366 206.553 6.68229 204.692 4.51972C202.946 2.484 200.626 1.66591 199.065 1.31711L180.971 1.30441Z" stroke="white" stroke-width="1.6358" stroke-miterlimit="10"/>
</svg>
